HIERARCHY
ROOT joint_Root
{
	OFFSET 0.0 0.0 0.0
	CHANNELS 6 Xposition Yposition Zposition Zrotation Xrotation Yrotation 
	JOINT Hips
	{
		OFFSET -0.726466 93.3139 -2.00062
		CHANNELS 6 Xposition Yposition Zposition Zrotation Xrotation Yrotation 
		JOINT Spine
		{
			OFFSET 15.7357 0.0 0.0
			CHANNELS 6 Xposition Yposition Zposition Zrotation Xrotation Yrotation 
			JOINT Chest
			{
				OFFSET 8.98455 -0.406207 0.0
				CHANNELS 6 Xposition Yposition Zposition Zrotation Xrotation Yrotation 
				JOINT Neck
				{
					OFFSET 16.3773 0.0 0.0
					CHANNELS 6 Xposition Yposition Zposition Zrotation Xrotation Yrotation 
					JOINT Head
					{
						OFFSET 6.45672 0.0 0.0
						CHANNELS 6 Xposition Yposition Zposition Zrotation Xrotation Yrotation 
						End Site
						{
							OFFSET 0.0 0.0 0.0
						}
					}
				}
				JOINT Shoulder_L
				{
					OFFSET 12.9942 -0.242716 4.98039
					CHANNELS 6 Xposition Yposition Zposition Zrotation Xrotation Yrotation 
					JOINT UpperArm_L
					{
						OFFSET 5.34809 0.0 0.0
						CHANNELS 6 Xposition Yposition Zposition Zrotation Xrotation Yrotation 
						JOINT LowerArm_L
						{
							OFFSET 24.3286 1.87007e-05 0.0
							CHANNELS 6 Xposition Yposition Zposition Zrotation Xrotation Yrotation 
							JOINT Hand_L
							{
								OFFSET 22.2916 0.0 0.0
								CHANNELS 6 Xposition Yposition Zposition Zrotation Xrotation Yrotation 
								End Site
								{
									OFFSET 0.0 0.0 0.0
								}
							}
						}
					}
				}
				JOINT Shoulder_R
				{
					OFFSET 12.9945 -0.242716 -4.98039
					CHANNELS 6 Xposition Yposition Zposition Zrotation Xrotation Yrotation 
					JOINT UpperArm_R
					{
						OFFSET -5.34813 0.0 0.0
						CHANNELS 6 Xposition Yposition Zposition Zrotation Xrotation Yrotation 
						JOINT LowerArm_R
						{
							OFFSET -24.3289 0.000322201 0.0
							CHANNELS 6 Xposition Yposition Zposition Zrotation Xrotation Yrotation 
							JOINT Hand_R
							{
								OFFSET -22.2915 -0.000108084 0.0
								CHANNELS 6 Xposition Yposition Zposition Zrotation Xrotation Yrotation 
								End Site
								{
									OFFSET 0.0 0.0 0.0
								}
							}
						}
					}
				}
			}
		}
		JOINT UpperLeg_L
		{
			OFFSET -2.19248 -6.46944 0.0
			CHANNELS 6 Xposition Yposition Zposition Zrotation Xrotation Yrotation 
			JOINT LowerLeg_L
			{
				OFFSET 39.0811 0.0 -1.23785e-05
				CHANNELS 6 Xposition Yposition Zposition Zrotation Xrotation Yrotation 
				JOINT Foot_L
				{
					OFFSET 40.9854 0.0 -1.26872e-05
					CHANNELS 6 Xposition Yposition Zposition Zrotation Xrotation Yrotation 
					JOINT Toes_L
					{
						OFFSET 11.7543 0.0 0.0
						CHANNELS 6 Xposition Yposition Zposition Zrotation Xrotation Yrotation 
						End Site
						{
							OFFSET 0.0 0.0 0.0
						}
					}
				}
			}
		}
		JOINT UpperLeg_R
		{
			OFFSET -2.19251 6.46944 0.0
			CHANNELS 6 Xposition Yposition Zposition Zrotation Xrotation Yrotation 
			JOINT LowerLeg_R
			{
				OFFSET -39.0811 -0.00228153 -0.0401928
				CHANNELS 6 Xposition Yposition Zposition Zrotation Xrotation Yrotation 
				JOINT Foot_R
				{
					OFFSET -40.9854 0.0 0.0
					CHANNELS 6 Xposition Yposition Zposition Zrotation Xrotation Yrotation 
					JOINT Toes_R
					{
						OFFSET -11.7543 0.0 0.0
						CHANNELS 6 Xposition Yposition Zposition Zrotation Xrotation Yrotation 
						End Site
						{
							OFFSET 0.0 0.0 0.0
						}
					}
				}
			}
		}
	}
}
MOTION
Frames:	5
Frame Time:	0.0333333
0.000000 0.000000 0.000000 0.000000 0.000000 -0.000000 0.829100 84.300500 -38.702300 94.072400 0.071232 -5.219250 15.735700 0.000005 -0.000001 97.357600 82.678300 -100.465000 8.984550 -0.406207 -0.000000 6.818710 1.894620 -6.320820 16.377300 -0.000001 -0.000001 -3.343370 -2.459430 2.536770 6.456720 -0.000001 -0.000000 -1.534080 -2.139920 -1.414010 12.994200 -0.242716 4.980390 -90.647200 1.587020 -67.800800 5.348090 -0.000007 -0.000001 -68.153200 14.827300 -2.105640 24.328600 0.000019 0.000005 2.047810 -0.191241 -95.323000 22.291600 -0.000001 0.000005 -1.567670 5.645880 -14.622900 12.994500 -0.242716 -4.980390 87.338300 7.503070 -70.403600 -5.348130 -0.000001 -0.000004 -65.593500 33.455200 -3.642480 -24.328900 0.000322 -0.000009 4.419950 1.442460 -72.071500 -22.291500 -0.000108 -0.000004 9.858910 5.625520 -12.919200 -2.192480 -6.469440 -0.000000 169.584000 -3.475840 -37.083100 39.081100 -0.000007 -0.000012 -0.428917 0.313295 53.855300 40.985400 -0.000006 -0.000013 5.525330 -5.011400 -72.605400 11.754300 -0.000000 0.000003 -0.000226 -0.003719 -16.728500 -2.192510 6.469440 -0.000001 170.872000 10.573900 162.125000 -39.081100 -0.002282 -0.040193 0.336699 0.207188 121.872000 -40.985400 0.000008 0.000006 6.227790 -7.894720 -27.792600 -11.754300 -0.000006 -0.000006 -0.022240 -0.179396 -23.907000
0.000000 0.000000 0.000000 0.000000 0.000000 -0.000000 1.419290 83.116100 -27.774200 94.124500 1.499610 -4.158230 15.735700 0.000005 -0.000001 90.259800 82.136500 -93.294000 8.984550 -0.406207 -0.000000 7.969720 0.065430 -6.066930 16.377300 -0.000001 -0.000001 -3.742900 -2.824650 2.411070 6.456720 -0.000001 -0.000000 -2.362560 -1.915130 0.301644 12.994200 -0.242716 4.980390 -90.301100 0.826680 -70.043100 5.348090 -0.000007 -0.000001 -64.719000 25.128100 -19.103200 24.328600 0.000019 0.000005 4.744170 -0.447729 -95.341600 22.291600 -0.000001 0.000005 -2.318570 5.665210 -16.684200 12.994500 -0.242716 -4.980390 87.461000 6.965020 -69.912900 -5.348130 -0.000001 -0.000004 -68.236500 27.019500 6.193330 -24.328900 0.000322 -0.000009 9.337200 4.403150 -64.975300 -22.291500 -0.000108 -0.000004 10.923500 5.645490 -14.631100 -2.192480 -6.469440 -0.000000 169.846000 -6.056930 -28.700000 39.081100 -0.000007 -0.000012 -0.709729 0.456806 57.235100 40.985400 -0.000006 -0.000013 6.241540 -2.953000 -83.336200 11.754300 -0.000000 0.000003 -0.000003 -0.000039 -16.579000 -2.192510 6.469440 -0.000001 173.167000 10.275300 147.407000 -39.081100 -0.002282 -0.040193 -0.223826 -0.201434 131.552000 -40.985400 0.000008 0.000006 11.682200 -10.307100 -28.879000 -11.754300 -0.000006 -0.000006 -0.020996 -0.172743 -23.632600
0.000000 0.000000 0.000000 0.000000 0.000000 -0.000000 1.104890 83.966300 -15.915100 89.970400 3.826910 -5.576380 15.735700 0.000005 -0.000001 77.786500 82.573000 -78.975700 8.984550 -0.406207 -0.000000 6.728050 -3.121540 -2.192680 16.377300 -0.000001 -0.000001 -3.845500 -2.570530 1.651020 6.456720 -0.000001 -0.000000 -1.949140 1.011530 -0.842822 12.994200 -0.242716 4.980390 -88.919200 -3.446650 -72.571300 5.348090 -0.000007 -0.000001 -64.200200 29.793500 -27.748400 24.328600 0.000019 0.000005 8.062050 -1.684910 -101.753000 22.291600 -0.000001 0.000005 -3.263180 5.660350 -16.140600 12.994500 -0.242716 -4.980390 87.693200 5.812170 -68.306600 -5.348130 -0.000001 -0.000004 -66.763800 29.224200 13.329600 -24.328900 0.000322 -0.000009 5.317360 2.054910 -68.939200 -22.291500 -0.000108 -0.000004 7.514880 5.647610 -14.791800 -2.192480 -6.469440 -0.000000 175.015000 -4.493410 -17.723400 39.081100 -0.000007 -0.000012 0.180822 -0.146691 50.948800 40.985400 -0.000006 -0.000013 9.682410 -4.846300 -88.773200 11.754300 -0.000000 0.000003 -0.210026 -0.261359 -17.002300 -2.192510 6.469440 -0.000001 -178.926000 9.385790 136.059000 -39.081100 -0.002282 -0.040193 -0.526917 -0.438948 129.611000 -40.985400 0.000008 0.000006 12.956300 -14.567400 -37.146300 -11.754300 -0.000006 -0.000006 -0.018860 -0.160893 -23.144500
0.000000 0.000000 0.000000 0.000000 0.000000 -0.000000 0.475000 86.961700 -3.072250 85.430200 6.996910 -6.406260 15.735700 0.000005 -0.000001 60.678500 82.325600 -59.594100 8.984550 -0.406207 -0.000000 5.727260 -7.517450 2.545310 16.377300 -0.000001 -0.000001 -3.369570 -2.013850 0.924741 6.456720 -0.000001 -0.000000 -1.603800 4.402100 -2.716190 12.994200 -0.242716 4.980390 -88.409600 -5.473930 -73.771500 5.348090 -0.000007 -0.000001 -62.587400 32.369300 -30.727000 24.328600 0.000019 0.000005 -0.125100 0.043243 -108.458000 22.291600 -0.000001 0.000005 -0.160329 5.651230 -15.137200 12.994500 -0.242716 -4.980390 88.242700 4.045380 -66.493900 -5.348130 -0.000001 -0.000004 -65.149600 33.455800 17.671400 -24.328900 0.000322 -0.000009 6.006770 1.706850 -74.198600 -22.291500 -0.000108 -0.000004 5.083340 5.641570 -14.254800 -2.192480 -6.469440 -0.000000 -177.880000 -2.362330 -5.709260 39.081100 -0.000007 -0.000012 0.099872 -0.122116 39.277300 40.985400 -0.000006 -0.000013 8.174020 -1.558350 -77.115200 11.754300 -0.000000 0.000003 -0.046646 -0.285602 -28.329800 -2.192510 6.469440 -0.000001 -172.134000 6.992680 131.426000 -39.081100 -0.002282 -0.040193 -0.372241 -0.195704 117.512000 -40.985400 0.000008 0.000006 9.580230 -15.071600 -47.772800 -11.754300 -0.000006 -0.000006 -0.019772 -0.166022 -23.355700
0.000000 0.000000 0.000000 0.000000 0.000000 -0.000000 0.199694 90.905300 9.624540 82.411200 9.389410 -7.414090 15.735700 0.000005 -0.000001 48.422400 81.841200 -45.726900 8.984550 -0.406207 -0.000000 4.772590 -10.880100 5.852330 16.377300 -0.000001 -0.000001 -2.975280 -1.684510 0.918436 6.456720 -0.000001 -0.000000 -0.868111 6.217950 -3.188650 12.994200 -0.242716 4.980390 -88.223200 -6.195790 -73.964300 5.348090 -0.000007 -0.000001 -61.505400 34.096000 -31.633800 24.328600 0.000019 0.000005 -0.934460 0.396767 -113.008000 22.291600 -0.000001 0.000005 -0.126981 5.640310 -14.132100 12.994500 -0.242716 -4.980390 88.971800 2.264070 -65.566800 -5.348130 -0.000001 -0.000004 -65.997900 33.936000 22.364600 -24.328900 0.000322 -0.000009 5.685980 1.172010 -78.398200 -22.291500 -0.000108 -0.000004 4.057040 5.630420 -13.364100 -2.192480 -6.469440 -0.000000 -171.695000 -4.052390 2.815730 39.081100 -0.000007 -0.000012 0.027681 -0.051541 28.238400 40.985400 -0.000006 -0.000013 4.713300 4.502790 -53.847400 11.754300 -0.000000 0.000003 -0.213053 -0.666368 -45.238200 -2.192510 6.469440 -0.000001 -168.736000 4.078140 129.809000 -39.081100 -0.002282 -0.040193 -0.136960 -0.022799 99.195500 -40.985400 0.000008 0.000006 6.096320 -14.606400 -55.455000 -11.754300 -0.000006 -0.000006 -0.018664 -0.159775 -23.098500
